<?xml version="1.0" standalone="no"?>
<!DOCTYPE svg PUBLIC "-//W3C//DTD SVG 20010904//EN"
 "http://www.w3.org/TR/2001/REC-SVG-20010904/DTD/svg10.dtd">
<svg version="1.0" xmlns="http://www.w3.org/2000/svg"
 width="321.000000pt" height="321.000000pt" viewBox="0 0 321.000000 321.000000"
 preserveAspectRatio="xMidYMid meet">
<metadata>
Created by potrace 1.14, written by Peter Selinger 2001-2017
</metadata>
<g transform="translate(0.000000,321.000000) scale(0.100000,-0.100000)"
fill="#000000" stroke="none">
<path d="M1215 2683 c-297 -65 -500 -305 -504 -595 -1 -57 -1 -58 -43 -79 -61
-31 -159 -134 -192 -201 -38 -80 -47 -113 -52 -193 -13 -217 115 -413 321
-490 33 -13 64 -31 70 -41 107 -195 229 -302 417 -366 84 -28 105 -31 208 -31
77 0 136 6 180 17 201 54 381 207 460 390 11 26 23 45 27 44 20 -5 139 15 195
33 305 101 502 379 493 697 -3 107 -5 120 -35 213 -44 136 -155 281 -278 363
-121 80 -240 117 -386 121 -95 2 -156 -8 -254 -41 l-72 -25 -52 45 c-62 54
-173 110 -257 130 -56 13 -201 18 -246 9z m184 -187 c105 -15 217 -93 292
-202 30 -44 31 -45 54 -30 122 80 222 114 340 114 246 1 462 -175 515 -419 17
-76 8 -209 -18 -282 -55 -154 -177 -274 -333 -328 -50 -17 -88 -22 -178 -23
l-113 -1 -22 -77 c-54 -187 -197 -323 -385 -368 -80 -19 -210 -8 -290 25 -143
59 -244 164 -295 307 l-23 63 -50 6 c-121 15 -203 71 -253 172 -83 168 3 361
187 421 28 9 61 18 72 19 24 1 25 10 8 92 -22 104 -11 187 35 280 51 104 151
188 259 219 84 24 106 25 198 12z"/>
<path d="M626 845 c-56 -20 -87 -45 -121 -100 -25 -40 -29 -57 -29 -114 0 -77
24 -132 76 -176 53 -45 95 -58 170 -53 56 4 75 11 114 40 217 155 40 492 -210
403z m122 -211 c3 -25 -8 -40 -34 -48 -47 -14 -76 61 -31 81 27 13 61 -4 65
-33z"/>
</g>
</svg>
